<svg width="22" height="27" viewBox="0 0 22 27" fill="none" xmlns="http://www.w3.org/2000/svg">
<path d="M0 6.88341C0 5.10504 1.23105 3.66373 2.75 3.66373H19.25C20.7668 3.66373 22 5.10504 22 6.88341V19.7621C22 21.538 20.7668 22.9818 19.25 22.9818H2.75C1.23105 22.9818 0 21.538 0 19.7621V6.88341ZM2.0625 6.88341V7.99521L9.47461 15.1188C10.3598 15.974 11.6402 15.974 12.5254 15.1188L19.9375 7.99521V6.83813C19.9375 6.4407 19.6281 6.03321 19.25 6.03321H2.75C2.37016 6.03321 2.0625 6.4407 2.0625 6.83813V6.88341ZM2.0625 11.1193V19.7621C2.0625 20.2048 2.37016 20.5671 2.75 20.5671H19.25C19.6281 20.5671 19.9375 20.2048 19.9375 19.7621V11.1193L13.8359 16.9852C12.1859 18.5699 9.81406 18.5699 8.12539 16.9852L2.0625 11.1193Z" fill="#3B5D50"/>
</svg>
