<svg width="174" height="32" viewBox="0 0 174 32" fill="none" xmlns="http://www.w3.org/2000/svg">
<path d="M0.556818 25V1.72727H14.9886V4.75H4.06818V11.8409H13.9545V14.8523H4.06818V25H0.556818ZM28.9972 17.7614V7.54545H32.4062V25H29.0653V21.9773H28.8835C28.482 22.9091 27.8381 23.6856 26.9517 24.3068C26.0729 24.9205 24.9782 25.2273 23.6676 25.2273C22.5464 25.2273 21.554 24.9811 20.6903 24.4886C19.8343 23.9886 19.16 23.25 18.6676 22.2727C18.1828 21.2955 17.9403 20.0871 17.9403 18.6477V7.54545H21.3381V18.2386C21.3381 19.428 21.6676 20.375 22.3267 21.0795C22.9858 21.7841 23.8419 22.1364 24.8949 22.1364C25.5313 22.1364 26.1638 21.9773 26.7926 21.6591C27.429 21.3409 27.9555 20.8598 28.3722 20.2159C28.7964 19.572 29.0047 18.7538 28.9972 17.7614ZM36.9716 25V7.54545H40.2557V10.3182H40.4375C40.7557 9.37879 41.3163 8.64015 42.1193 8.10227C42.9299 7.55682 43.8466 7.28409 44.8693 7.28409C45.0814 7.28409 45.3314 7.29167 45.6193 7.30682C45.9148 7.32197 46.1458 7.34091 46.3125 7.36364V10.6136C46.1761 10.5758 45.9337 10.5341 45.5852 10.4886C45.2367 10.4356 44.8883 10.4091 44.5398 10.4091C43.7367 10.4091 43.0208 10.5795 42.392 10.9205C41.7708 11.2538 41.2784 11.7197 40.9148 12.3182C40.5511 12.9091 40.3693 13.5833 40.3693 14.3409V25H36.9716ZM52.6506 14.6364V25H49.2528V7.54545H52.5142V10.3864H52.7301C53.1316 9.46212 53.7604 8.7197 54.6165 8.15909C55.4801 7.59848 56.5672 7.31818 57.8778 7.31818C59.0672 7.31818 60.1089 7.56818 61.0028 8.06818C61.8968 8.56061 62.59 9.29545 63.0824 10.2727C63.5748 11.25 63.821 12.4583 63.821 13.8977V25H60.4233V14.3068C60.4233 13.0417 60.0938 12.053 59.4347 11.3409C58.7756 10.6212 57.8703 10.2614 56.7188 10.2614C55.9309 10.2614 55.2301 10.4318 54.6165 10.7727C54.0104 11.1136 53.5294 11.6136 53.1733 12.2727C52.8248 12.9242 52.6506 13.7121 52.6506 14.6364ZM68.3778 25V7.54545H71.7756V25H68.3778ZM70.0938 4.85227C69.5028 4.85227 68.9953 4.6553 68.571 4.26136C68.1544 3.85985 67.946 3.38257 67.946 2.82954C67.946 2.26894 68.1544 1.79167 68.571 1.39773C68.9953 0.996211 69.5028 0.795454 70.0938 0.795454C70.6847 0.795454 71.1884 0.996211 71.6051 1.39773C72.0294 1.79167 72.2415 2.26894 72.2415 2.82954C72.2415 3.38257 72.0294 3.85985 71.6051 4.26136C71.1884 4.6553 70.6847 4.85227 70.0938 4.85227ZM76.6193 25V1.72727H91.2102V4.75H80.1307V11.8409H90.4489V14.8523H80.1307V21.9773H91.3466V25H76.6193ZM98.3097 7.54545L102.162 14.3409L106.048 7.54545H109.764L104.321 16.2727L109.81 25H106.094L102.162 18.4773L98.2415 25H94.5142L99.946 16.2727L94.5824 7.54545H98.3097ZM113.253 31.5455V7.54545H116.571V10.375H116.855C117.052 10.0114 117.336 9.59091 117.707 9.11364C118.079 8.63636 118.594 8.2197 119.253 7.86364C119.912 7.5 120.783 7.31818 121.866 7.31818C123.276 7.31818 124.533 7.67424 125.639 8.38636C126.745 9.09848 127.613 10.125 128.241 11.4659C128.878 12.8068 129.196 14.4205 129.196 16.3068C129.196 18.1932 128.882 19.8106 128.253 21.1591C127.624 22.5 126.76 23.5341 125.662 24.2614C124.563 24.9811 123.31 25.3409 121.901 25.3409C120.84 25.3409 119.973 25.1629 119.298 24.8068C118.632 24.4508 118.109 24.0341 117.73 23.5568C117.351 23.0795 117.06 22.6553 116.855 22.2841H116.651V31.5455H113.253ZM116.582 16.2727C116.582 17.5 116.76 18.5758 117.116 19.5C117.473 20.4242 117.988 21.1477 118.662 21.6705C119.336 22.1856 120.162 22.4432 121.139 22.4432C122.154 22.4432 123.003 22.1742 123.685 21.6364C124.366 21.0909 124.882 20.3523 125.23 19.4205C125.586 18.4886 125.764 17.4394 125.764 16.2727C125.764 15.1212 125.59 14.0871 125.241 13.1705C124.901 12.2538 124.385 11.5303 123.696 11C123.014 10.4697 122.162 10.2045 121.139 10.2045C120.154 10.2045 119.321 10.4583 118.639 10.9659C117.965 11.4735 117.454 12.1818 117.105 13.0909C116.757 14 116.582 15.0606 116.582 16.2727ZM140.526 25.3523C138.806 25.3523 137.325 24.9848 136.082 24.25C134.848 23.5076 133.893 22.4659 133.219 21.125C132.552 19.7765 132.219 18.197 132.219 16.3864C132.219 14.5985 132.552 13.0227 133.219 11.6591C133.893 10.2955 134.832 9.23106 136.037 8.46591C137.249 7.70076 138.666 7.31818 140.287 7.31818C141.272 7.31818 142.226 7.48106 143.151 7.80682C144.075 8.13258 144.904 8.64394 145.639 9.34091C146.374 10.0379 146.954 10.9432 147.378 12.0568C147.802 13.1629 148.014 14.5076 148.014 16.0909V17.2955H134.139V14.75H144.685C144.685 13.8561 144.503 13.0644 144.139 12.375C143.776 11.678 143.264 11.1288 142.605 10.7273C141.954 10.3258 141.188 10.125 140.31 10.125C139.355 10.125 138.522 10.3598 137.81 10.8295C137.105 11.2917 136.56 11.8977 136.173 12.6477C135.795 13.3902 135.605 14.197 135.605 15.0682V17.0568C135.605 18.2235 135.81 19.2159 136.219 20.0341C136.635 20.8523 137.215 21.4773 137.957 21.9091C138.7 22.3333 139.567 22.5455 140.56 22.5455C141.204 22.5455 141.791 22.4545 142.321 22.2727C142.851 22.0833 143.31 21.803 143.696 21.4318C144.082 21.0606 144.378 20.6023 144.582 20.0568L147.798 20.6364C147.541 21.5833 147.079 22.4129 146.412 23.125C145.753 23.8295 144.923 24.3788 143.923 24.7727C142.931 25.1591 141.798 25.3523 140.526 25.3523ZM151.784 25V7.54545H155.068V10.3182H155.25C155.568 9.37879 156.129 8.64015 156.932 8.10227C157.742 7.55682 158.659 7.28409 159.682 7.28409C159.894 7.28409 160.144 7.29167 160.432 7.30682C160.727 7.32197 160.958 7.34091 161.125 7.36364V10.6136C160.989 10.5758 160.746 10.5341 160.398 10.4886C160.049 10.4356 159.701 10.4091 159.352 10.4091C158.549 10.4091 157.833 10.5795 157.205 10.9205C156.583 11.2538 156.091 11.7197 155.727 12.3182C155.364 12.9091 155.182 13.5833 155.182 14.3409V25H151.784ZM173.244 7.54545V10.2727H163.71V7.54545H173.244ZM166.267 3.36364H169.665V19.875C169.665 20.5341 169.763 21.0303 169.96 21.3636C170.157 21.6894 170.411 21.9129 170.722 22.0341C171.04 22.1477 171.384 22.2045 171.756 22.2045C172.028 22.2045 172.267 22.1856 172.472 22.1477C172.676 22.1098 172.835 22.0795 172.949 22.0568L173.562 24.8636C173.366 24.9394 173.085 25.0152 172.722 25.0909C172.358 25.1742 171.903 25.2197 171.358 25.2273C170.464 25.2424 169.631 25.0833 168.858 24.75C168.085 24.4167 167.46 23.9015 166.983 23.2045C166.506 22.5076 166.267 21.6326 166.267 20.5795V3.36364Z" fill="white"/>
</svg>
