<svg width="29" height="29" viewBox="0 0 29 29" fill="none" xmlns="http://www.w3.org/2000/svg">
<g clip-path="url(#clip0_0_472)">
<path d="M28.213 0.985384C28.7851 1.36362 29.0853 2.01743 28.9777 2.67125L25.3527 25.1494C25.2677 25.6735 24.9335 26.1328 24.4464 26.3922C23.9593 26.6515 23.3759 26.684 22.8605 26.4786L15.7068 23.6418L13.4355 27.6674C13.141 28.1915 12.5123 28.4563 11.9062 28.3104C11.3002 28.1645 10.8753 27.6458 10.8753 27.0514V21.8641C10.8753 21.5777 10.9773 21.2968 11.1642 21.0698L20.5269 9.5822C20.6685 9.19856 20.1587 8.80951 19.7906 9.12831L9.65191 17.8764L7.83941 19.438C7.31832 19.8865 6.57632 20.0108 5.92496 19.7514L1.1105 17.8386C0.476128 17.5846 0.0456594 17.0119 0.00601093 16.3527C-0.0336375 15.6934 0.317534 15.0721 0.917925 14.7424L26.2929 0.909736C26.899 0.580129 27.6466 0.612549 28.2187 0.985384H28.213Z" fill="#2F2F2F"/>
</g>
<defs>
<clipPath id="clip0_0_472">
<rect width="29" height="27.6654" fill="white" transform="translate(0 0.682831)"/>
</clipPath>
</defs>
</svg>
